


<svg viewBox="0 0 443.7 206.4" xmlns="http://www.w3.org/2000/svg"><g fill="#fff"><path d="m293.2 4.3c-.1 3.9-5 2.5-6 7.5-1 4.9-1 28.2-1.2 41.3l.3 41c2 3.2 5.7.6 5.3 5.4-6.3 2.2-12 4.5-18.1 6.7-.8-2.4-.8-2.9.4-4.2 1.2-1.4 3.2-3.5 3.4-6.2l.5-39.9.3-2.3c-5.3 3.9-16.2 3.6-19.9 4.7-3.5 1-3.1 2.3-3.1 2.3s-.1 43.2 0 45.3 3.7 1.2 5.4 2.1c.6.4.6 1.3.8 3.1-5.8 2.4-11.7 4.8-17.5 7.2-.3-.3-.9-2.5-.5-3.7l2.9-2.7v-85.8c-.1-4.3.3-8.4-4.1-9.4-2.2-.5-4.5.6-5-2-.1-.4-.2-1.6-.2-1.6 6.5-.8 15.4-2.1 21.9-4.1 3.2 3.1-3.2 5.5-3.6 8-.7 11.8-1 18.8 0 31.3 6.7-.9 14.8-1.1 21.5-5.2 0 0 .2-1.5.6-6.4s-.3-24.6-.3-24.6c-.5-3.8-5.5 0-4.4-5.6 6.7-1.1 14.5-2.3 20-5 0 0 .4.1.5.7.3 1.1.1 1.6.1 2.1zm83.9 12.6c-1 19.3-1 57-.9 58.8.2 1.8 1.5 1.7 1.5 1.7 22.9 1.7 45.3-2.6 59.1-20.8 4.8-7.7 4.2-17.1-.9-23.4-3.1-3.8-7.2-6-11.8-6.1-4.1 0-7.7 1.4-11.1 2.9-1.7-3.4 2.2-4.6 4.1-6.7-4.6-1.5-8.3 1.4-10.3 3.2-5.2 4.9-7.3 11.8-6.1 19 2 5 5 10 11.1 10.6 5.1.5 10.3-1.7 12.3-6.5 1-2.5 1.7-5.5.7-8.2-.9-3.2-2.7-5.6-5.6-5.8-2.7-.2-5.3 1.2-6.7 3.8 2.8.6 2.5 4.8-1.2 3.6-2.4-.8-1.3-4.9 1.7-7.4 1.7-1.5 5-2.5 7.3-2 5.7 1.1 6.7 4.7 7.4 8.7 1 6.1-1.7 11.8-7.4 14.7-3.4 1.7-7.4 2.9-12 1.2-4.7-1.7-7.8-6.1-9.7-10.6-1.5 6.9-.7 16.7-9.4 18.8-3.4.5-6.1-.2-8.2-2.4-1.8-1.8-2.1-3.9-1.6-6.3.2-1.1.6-2.8 3.3-4.1 2.6-1.2 6.5-.1 7.7 2.2.5 1.2.5 3.2 0 4s-3.1 2.2-4.9.9c-.5-.6 3.5-.8 2.9-3.4l-.5-.3c-1.6 4.2-6.9-2.5-6.6 3.1 0 .4.1.9.3 1.3.5.8.5.8.7 1 1.8 1.9 3.6 2.5 6.4 1.9s3.4-1.8 4.5-3.3c6.1-8.8 1.1-27.2 11.4-36.2 5.5-4.9 11.5-5.6 18.7-3.8 21.4 5.1 25.3 33.8 10.4 48-9.2 8.8-18 12.6-29 14.8-5.4 1.1-11 1.7-16.5 2-5.3.3-6.2.3-11.4.6-1.6.1-8 .6-9.5.4-.5-1.9.1-3.4.8-5.3v-60c.3-4.9-4.6-3.9-2.6-7 4.4-1.2 9-2.1 13.1-3.8 2.6 2.4-1.2 4.1-1.5 6.2zm-25.5.2c0 2.2-2 2-2.2 3.7-1 17.8-1.4 37.3-1.2 55.3.3 1.2 1 2.7 2.4 3.3 4.6.2 10-.5 13.9-2-.5 3.2.7 5.7.3 9.6-8-.3-18 .8-26 1.9-1.4-4.2 1.1-5 1.1-8.7l-.3-56c0-3.7-4.1-.6-2.8-5.6 5.2-1.3 9.9-1.9 14.6-3.6z"/><path d="m110.5 144.8c-5.8-2.7-10.3-7.3-10.9-14.1l-28.3-119.9s-.7-3.8-1.8-4.9c-.6-.6-2.2-2.5-3.9 6.6-1.5 8-9.8 49.8-9.8 49.8s-.4 1.6-.8 2.9c-.3 1.3-1.3-1.8-1.3-1.8s-15.4-53-16.7-56-3-1.2-3.9 2.1c-.3 1-2.3 7.5-3.3 11.2l-18.7 64.9-7.1 29.2c-5.1 23.6-2.9 45.4 7.5 65.2 10.4 18.5 32.5 26.8 53 24.8 18.1-3.4 27.3-13.4 29.5-25.8 2.1-12.6-2-24.3-12.3-31.6 11.3-1 17.1.3 27.8.5 1.5 0 1.3-2.1 1-3.1zm-23.5-4.2c-1.7 3.2-6.7 1.9-7 5.6-11.7-10.1-31.2-.2-43.8-6.7-2.5-1.3-5.9-3.5-6.5-6-.5-1.8-1.4-5.8.9-8.2 1.5-2 3.6-2.9 6.2-2.6 3.3 2.4-1.9 8 2.7 8.2.2.7 0 1.4-.7 1.4-3.1.2-2.4-3.4-4.1-4.1-2.2 1-1.2 3.8-.9 5.3 1.2 2.6 4.1 2.2 6.2 1.5 3.1-1.5 3.9-4.8 4.1-8.2-.2-2.7-1.7-5.6-4.6-6.5-3.7-1.1-8.7-.3-11.2 2.8-2.5 3-2.7 7.4-1.8 11.1s3.4 6.4 6.6 8.4c3.3 2 7.5 2.2 11.3 2.3h6.2c1.7 0 3.8.4 5.4.1-8.5 1.8-13.5 8.7-15.5 15.5-1.5 7.7 1 15.1 6.7 20.2 7.2 5.8 15.2 7.5 23.1 3.1 6.2-3.6 6.5-12.8 5.6-16.1-1.2-4-5.4-6.2-9.9-6.4-2.4-.1-5.8 1-4.1 1.2 3.6.3 9.6.4 10.9 5.6.7 2.9-.2 7.8-1.6 9.3-4.4 4.9-10.5 5-16.3 3.2-5.1-1.7-9.7-7.2-10.2-12.8-.3-4.1-.5-9.1 2.6-12.3 6.1-7 14.5-9.7 23.7-8.2 8.7 2 18.5 8.5 20 18.1v3.2c-1.5-3.2-4.8-6.8-8.5-7-.7-.2-1.2.5-1.7.8 5.1 9.2 8.4 21.7.5 30.8-7 6.5-15.7 9.7-25.5 8.2-13.7-2.4-29.9-12.4-36.2-25.8-17.8-41.5.5-90.3 14.4-130.7.9-2.5 1.9-7.6 2.9-5.6 1 1.9 13 47.7 16.1 72.9.3 1.8 1.6 2.7 2.4.9.7-1.9 1.4-6.8 2.4-11.1l10.6-54.2c.6-3 .8-4.6 1.3-3.6 0 0 13.1 59.8 18.6 89.4.1 2-.3 4.9-1.3 7zm78.2-95.1c-2.9 4.8 9.7 13.1-1.7 11.6-3.9 3.8-6.5 9-5 14.3 3.2 11.3 18.1 16.7 21 28.7 2.9 12.2 2.2 25.3-5 35.2-5.1 5.5-11.6 8.4-19 7-6.3-2.2-11.3-8.4-12.6-14.9-2.7-11.3.2-22.2 8.5-29.9 1.9-1.9-1.9-4.9 1.7-5.6 1.9 2.4 2.7 5.8 5.9 8.4 1.4 1.1 4.2 1.2 3.2 3.4-4.6-1.5-7.7 2.4-9.9 5.8-3.2 5.8-4.1 15.6.9 20.5 2.8 2.7 6.3 5.5 10.6 3.6 7.2-4.3 9.6-12 10.2-20 1.5-17.7-17.6-25.3-22.9-39.5-2.2-6-1.4-13.8 2.4-18.8 2.7-3.9 7.2-6.1 8.7-10.6 1.1.3 2.5-.4 3 .8zm63.1 1.1c4.8 4.4 7.5 10.9 5.6 17.1-.6 2.1-3.6 8.2-3.6 8.2-3.4-1.2-5.5-3.6-8.2-5.6-.7-.6-1.7-1-1.2-2.1 2.7.2 5.6-1.5 6.1-4.1.7-3.2-2.2-6.3-5-7.9-2.4-1.3-5.6-1.7-7.9.5-10.5 10.3-11.6 29.3-6.3 42.3 3.4 8.9 10.8 17.6 19.3 22.9.7.2 1.7-.3 2.4.5-.9 3.4-4.4 5.8-6.1 8.9-2.2.5-.5-2.1-1.7-2.7-12.1-10.9-22.6-24-23.7-40.3-1.1-15 .9-30.2 12.8-38.9 4.6-3.6 13.2-2.9 17.5 1.2z"/><path d="m194.1 54.5-2 2.4.5 68.5c1.2 1.4 3.8 1.9 2.7 4.6-4.3 1.2-8.7 2.1-13.5 4.1-1.4-2.6 1.9-4.3 2-6.7l-.3-60.6c0-3.6.9-7.3-3.2-9.1.2-1-.9-2.6.7-3.2 4.6-.2 8.7-1.2 12.3-3.2 1.9 0 1.3 2.3.8 3.2zm-51.9 11.6-1.7 2c-.6 21 .5 45.6-1.2 65.5-.6 7.2-4.6 10.6-10.3 13.2-4.6 1.7-10.1 1.4-14.4-1.7-7.2-6.1-8.2-14.9-8.7-23.7l-1.2-49.7c-1.7-1.2-2.7-3.2-1.7-5 4.1.3 8.5-.5 12.8-.9 1.4.7.9 2.4.3 3.2l-1.2.9c-1.6 19-3.1 45.3 1.6 63.4 1.1 4.1 4.3 4.7 6.9 4.8 4.1.1 6.2-2.2 7-5 .5-1.6.7-5 .7-6.7.7-13.7-.2-54.8-.2-54.8.2-2.9-4.1-2.9-2.6-6.2 4.3-.3 9.4-2.6 12.9-2.6.7.7 1.4 2.1 1 3.3zm191.9 18.8c-3.6-13.7-9.1-30.9-12.9-45.2-1.3-5.1-2.3-11.8-2.5-14.2.1-1.4.8-.4 1.5-2.2l-1-3c-4.6 1.9-10.3 2-15.5 3.5-.2 1.2-.9 2.6 2 3.1-2.9 22.4-6.7 42.4-8.9 65-.5.6-1.5 2.4-3 3.2-.7 1.5.1 2.5.2 3.7 5.2-1.3 11.3-3.7 16-4.5.9-.2.3-1.8-.4-3.3-1.9-.2-4.1.2-5.1-.9-.7-7.3 1.1-13.9 1.6-21.4 3.7-1.7 10.4-3.8 14.9-4.1 2.9 4.8 3.5 11.3 4.6 16.7.9 6.3-7.7 6.2-5.3 10.8 4.6-1.2 12.8-1.8 17.4-3 0-2.9-1.5-2.9-3.6-4.2zm-26-25.2c.6-6.5 3-21.8 4.1-27.3 1.9 5.4 7 24.6 7 24.6s-8.6 2.4-11.1 2.7zm-190.1-22.8c1.8-2.7 4.5-4.6 7-4.6 2.2 0 3.6 1.2 3.6 3.4 0 1.8-.3 3.4-1.8 7.2-1.4 3.4-2 5.1-2 6.4 0 .5.3.7.7.7 1.2 0 2.8-1.7 3.8-4.3 0-.1.2-.2.3-.2.2 0 .7.2.7.6-.8 2.8-3.4 5.9-6.2 5.9-1.6 0-2.4-.6-2.4-2.4 0-1.6.7-4 2.1-7.5s1.8-5.1 1.8-6.5c0-1-.4-1.5-1.4-1.5-2.1 0-5.6 3.4-7 7-.8 2-3 8.8-3.2 10.1 0 .2-.5.5-1.1.5-.7 0-1.9-.3-1.9-.7s.1-.9.4-1.8c2.5-8 6.9-21.2 9-24.9-.9.5-1.9.8-3.3.8-3.2 0-6.7-.2-7.4-.2l-6.7 21.8c-.2.5-.2.9-.2 1.3 0 1.2.9 2 3.6 2 .2 0 .3.4.3.7 0 .5-.1.8-.4.8-1 0-2.6-.1-5.8-.1-3.1 0-4.9.1-5.9.1-.2 0-.3-.2-.3-.7s.1-.8.3-.8c2.8 0 3.7-.9 4.4-3.2l6.6-22c-1 0-1.8-.1-3.2-.1-5.2 0-6.7 1.1-7 2.7.2 0 .4-.1.5-.1 1 0 1.6 1 1.6 2 0 1.2-.8 2.4-2.6 2.4-1.4 0-2.7-.8-2.7-2.8 0-3.9 3.6-5.9 9.4-5.9 3.9 0 11.7.5 14 .5 3.5 0 4.3-.5 4.3-1.7 0-.2 0-.5-.2-.8 0-1.4 1-2.1 2-2.1 1.4 0 2.2.8 2.2 2.3 0 1.2-.4 1.9-1.2 2.5-1.3 3.2-3.1 8.6-4.7 13.2z"/><path d="m133 43.2c-.4 1.5-.7 3.1-.7 4.1 0 2.1.9 3 2.6 3 2.2 0 4.7-2.1 5.7-4.5.1-.3.2-.4.4-.4s.9.2.8.6c-.9 2.8-3.5 6.1-8 6.1-2.4 0-4.8-1.8-4.8-5.1 0-7.4 6.3-14.7 12.4-14.7 2.5 0 3.4 1.3 3.4 3.1-.1 3-4 5.9-11.8 7.8zm7.8-9.2c-2.2 0-5.5 2.8-7.3 7.8 5.2-1.5 8.5-3.9 8.5-6.5 0-.6-.2-1.3-1.2-1.3z"/></g></svg>
